<svg id="Layer_1" data-name="Layer 1" xmlns="http://www.w3.org/2000/svg" viewBox="0 0 426.88 435.84"><path d="M278.9,302.9v-.2h1.44C279.89,303.14,279.37,302.9,278.9,302.9Z" transform="translate(-8.02 -3.55)" fill="#7c7c7c"/><path d="M353.79,82.44C340.34,66.75,323.21,61,303.18,66.14c-22.34,5.7-37.34,25.88-37.38,49,0,.64.08,1.28.11,1.91.57,13.93,5.67,25.92,15.89,35.42,12.44,11.57,27.3,15.91,43.92,12.6,22.49-4.47,39.25-24.87,39.84-47.79C365.9,104.23,362.3,92.37,353.79,82.44Zm-59.44,38c-2.28-10.85,3.29-21.92,13-26A22,22,0,0,1,336,106.67c.21.52.4,1,.56,1.58a19.83,19.83,0,0,1,1,6.66c0,10.59-7,19.8-16.73,22.23C309.26,140,296.83,132.16,294.35,120.39Z" transform="translate(-8.02 -3.55)" fill="#62938a"/><path d="M353.79,82.44C340.34,66.75,323.21,61,303.18,66.14c-22.34,5.7-37.34,25.88-37.38,49,0,.64.08,1.28.11,1.91.57,13.93,5.67,25.92,15.89,35.42,12.44,11.57,27.3,15.91,43.92,12.6,22.49-4.47,39.25-24.87,39.84-47.79C365.9,104.23,362.3,92.37,353.79,82.44Zm-59.44,38c-2.28-10.85,3.29-21.92,13-26A22,22,0,0,1,336,106.67c.21.52.4,1,.56,1.58a19.83,19.83,0,0,1,1,6.66c0,10.59-7,19.8-16.73,22.23C309.26,140,296.83,132.16,294.35,120.39Z" transform="translate(-8.02 -3.55)" fill="#62938a"/><path d="M273.8,362.33c10.38,11.86,20.25,23.55,27.7,32.5Q288.3,378,273.8,362.33ZM394.2,237.39c3.79-.35,7.59-.7,11.38-1.12q-5.76.48-11.38,1.12Zm0,0c3.79-.35,7.59-.7,11.38-1.12q-5.76.48-11.38,1.12ZM273.8,362.33c10.38,11.86,20.25,23.55,27.7,32.5Q288.3,378,273.8,362.33Zm0,0c10.38,11.86,20.25,23.55,27.7,32.5Q288.3,378,273.8,362.33ZM394.2,237.39c3.79-.35,7.59-.7,11.38-1.12q-5.76.48-11.38,1.12Zm0,0c3.79-.35,7.59-.7,11.38-1.12q-5.76.48-11.38,1.12ZM301.55,394.83q-13.2-16.79-27.7-32.5C284.18,374.19,294.05,385.9,301.55,394.83Zm133.34-64V72.48c0-6.68.05-13.36-.07-20a48.1,48.1,0,0,0-3.72-18.1c-7.18-17-20-26.95-38-30.32-1.92-.36-3.89-.22-5.82-.51H387c-.55.26-1.14.06-1.71.12h-28A2.48,2.48,0,0,1,356,3.55H221.15a2.81,2.81,0,0,1-1.41.12H56.37s0,.06-.08.06C43.23,4.58,31.7,9,22.35,18.4,14.89,25.82,10.61,35,8.78,45.28A60.42,60.42,0,0,0,8,51.7V391.05c1.33,18.3,9.62,32.4,25.44,41.83A48.18,48.18,0,0,0,56,439.29a.11.11,0,0,1,.1.09H385.32c27.06.49,49.45-22.75,49.52-49.06h-.08v-3.11q0-27.56-.05-55.11v-1.32Zm-28-106.19v.54a1.71,1.71,0,0,1,0,.32l-.34,10.89h0c.25.16.3.51.3,1.07V365.82c0,7.6.15,15.2,0,22.79-.11,8.93-4.08,15.68-12,20a19.83,19.83,0,0,1-9.66,2.38c-14,0-27.91.07-41.86.07-7.14,0-14.27-.05-21.41-.08H59.16c-5.19,0-10.09-1-14.32-4.2-5.09-3.83-7.69-9.13-8.72-15.31a28,28,0,0,1-.24-4.3V242a1.51,1.51,0,0,1-.19-1c.09-1.91.09-3.84,0-5.75a1.41,1.41,0,0,1,.19-.94V223.49a1.55,1.55,0,0,1,0-.43V54.31A21.82,21.82,0,0,1,57.23,32h.53c17.32-.12,34.63-.1,52-.1H221.21V32H384.32c12.54,0,20.45,8.66,22.12,19.18a30.25,30.25,0,0,1,.32,4.66V62.2q0,66.92.09,133.81v22.45a1.69,1.69,0,0,1,0,.45v.75c0,1.64,0,3.29,0,4.94Zm-1.34,11.63q-5.76.48-11.38,1.12C398,237,401.79,236.69,405.55,236.27Zm-104,158.56q-13.2-16.79-27.7-32.5C284.18,374.19,294.05,385.9,301.55,394.83Zm-27.7-32.5c10.38,11.86,20.25,23.55,27.7,32.5Q288.31,378,273.8,362.33Zm120.4-124.94c3.79-.35,7.59-.7,11.38-1.12q-5.82.48-11.43,1.12Zm0,0c3.79-.35,7.59-.7,11.38-1.12q-5.82.48-11.43,1.12ZM273.8,362.33c10.38,11.86,20.25,23.55,27.7,32.5Q288.3,378,273.8,362.33Z" transform="translate(-8.02 -3.55)" fill="#c24332"/><polygon points="293.17 407.42 293.17 407.43 278.69 407.43 293.17 407.42" fill="#62938a"/><path d="M353.79,82.44C340.34,66.75,323.21,61,303.18,66.14c-22.34,5.7-37.34,25.88-37.38,49,0,.64.08,1.28.11,1.91.57,13.93,5.67,25.92,15.89,35.42,12.44,11.57,27.3,15.91,43.92,12.6,22.49-4.47,39.25-24.87,39.84-47.79C365.9,104.23,362.3,92.37,353.79,82.44Zm-59.44,38c-2.28-10.85,3.29-21.92,13-26A22,22,0,0,1,336,106.67c.21.52.4,1,.56,1.58a19.83,19.83,0,0,1,1,6.66c0,10.59-7,19.8-16.73,22.23C309.26,140,296.83,132.16,294.35,120.39Z" transform="translate(-8.02 -3.55)" fill="#62938a"/><path d="M353.79,82.44C340.34,66.75,323.21,61,303.18,66.14c-22.34,5.7-37.34,25.88-37.38,49,0,.64.08,1.28.11,1.91.57,13.93,5.67,25.92,15.89,35.42,12.44,11.57,27.3,15.91,43.92,12.6,22.49-4.47,39.25-24.87,39.84-47.79C365.9,104.23,362.3,92.37,353.79,82.44Zm-59.44,38c-2.28-10.85,3.29-21.92,13-26A22,22,0,0,1,336,106.67c.21.52.4,1,.56,1.58a19.83,19.83,0,0,1,1,6.66c0,10.59-7,19.8-16.73,22.23C309.26,140,296.83,132.16,294.35,120.39Z" transform="translate(-8.02 -3.55)" fill="#62938a"/><path d="M353.79,82.44C340.34,66.75,323.21,61,303.18,66.14c-22.34,5.7-37.34,25.88-37.38,49,0,.64.08,1.28.11,1.91.57,13.93,5.67,25.92,15.89,35.42,12.44,11.57,27.3,15.91,43.92,12.6,22.49-4.47,39.25-24.87,39.84-47.79C365.9,104.23,362.3,92.37,353.79,82.44Zm-59.44,38c-2.28-10.85,3.29-21.92,13-26A22,22,0,0,1,336,106.67c.21.52.4,1,.56,1.58a19.83,19.83,0,0,1,1,6.66c0,10.59-7,19.8-16.73,22.23C309.26,140,296.83,132.16,294.35,120.39Z" transform="translate(-8.02 -3.55)" fill="#62938a"/><path d="M355.26,110.47c-.17-1.34-.39-2.68-.68-4-4.22-19.87-22.35-34.31-43.48-31.74a37.86,37.86,0,0,0-25.55,13.9c-9.88,12.09-12.14,25.77-7.25,40.53,6.38,19.29,27.33,30.69,47,25.76,17.48-4.36,30.22-21,30.22-39.73A25.68,25.68,0,0,0,355.26,110.47Zm-34.41,26.67c-11.59,2.88-24-5-26.5-16.75-2.28-10.85,3.29-21.92,13-26A22,22,0,0,1,336,106.67c.21.52.4,1,.56,1.58a19.83,19.83,0,0,1,1,6.66C337.55,125.5,330.55,134.71,320.85,137.14Z" transform="translate(-8.02 -3.55)" fill="#62938a"/><path d="M347.3,110.47a32,32,0,0,0-32.06-27.66,28.27,28.27,0,0,0-9.85,1.65c-15.25,5.35-24.12,21.32-20.91,37.62,3.63,18.4,23,29.9,40.8,24.18A32.54,32.54,0,0,0,347.3,110.47Zm-26.45,26.67c-11.59,2.88-24-5-26.5-16.75-2.28-10.85,3.29-21.92,13-26A22,22,0,0,1,336,106.67c.21.52.4,1,.56,1.58a19.83,19.83,0,0,1,1,6.66C337.55,125.5,330.55,134.71,320.85,137.14Z" transform="translate(-8.02 -3.55)" fill="#62938a"/><polyline points="315.45 407.43 313.91 407.43 293.17 407.43" fill="none"/><line x1="270.08" y1="407.43" x2="264" y2="407.43" fill="none"/><line x1="224.97" y1="407.44" x2="335.32" y2="407.44" fill="none"/><path d="M406.86,206.71v12.94c-.05,1.65,0,3.3,0,4.95v.86l-.31,10.93h0a1.25,1.25,0,0,0-.91-.12q-5.76.48-11.38,1.12C282.32,250.22,218.42,309.1,218.42,309.1c7.6.59,32.7,27.31,55.38,53.23,10.38,11.86,20.25,23.55,27.7,32.5q5.91,7.51,11.54,15.24a1.91,1.91,0,0,0,1.76.91H278.11l-.7-.91A574.09,574.09,0,0,0,230,357.66q-16.5-16.14-34.29-30.86c-23.63-19.44-48.9-36.38-76.48-49.76a280.51,280.51,0,0,0-38.35-15.38,224,224,0,0,0-43.24-9.16c-1.78-.19-1.78-.22-1.78,1.51V223.49c.07.34.33.48.83.54,4.24.51,8.48,1.1,12.72,1.63a227.19,227.19,0,0,1,34.05,7.16c23.41,6.72,45.51,16.54,66.72,28.41a395.55,395.55,0,0,1,44.53,29c.67.5,1,.57,1.61-.13,1-1.22,2.19-2.33,3.32-3.47a188.62,188.62,0,0,1,29.4-24,295.7,295.7,0,0,1,56.48-29,399.55,399.55,0,0,1,65.26-19q16.68-3.42,33.61-5.2,10.56-1.16,21.14-1.63C406.55,207.75,406.81,207.46,406.86,206.71Z" transform="translate(-8.02 -3.55)" fill="#62938a"/><path d="M314.8,411a1.91,1.91,0,0,1-1.76-.91q-5.64-7.72-11.54-15.24C309.55,404.51,314.8,411,314.8,411Z" transform="translate(-8.02 -3.55)" fill="#62938a"/></svg>