<svg id="Layer_1" data-name="Layer 1" xmlns="http://www.w3.org/2000/svg" viewBox="0 0 368.99 423.58"><path d="M189.21,354.62H17.68a7.42,7.42,0,0,1-7.24-4.38c-1.43-3-.81-5.85,1.32-8.34q8.54-10,17.08-19.93c5.16-6,10.29-12.08,15.52-18a6.46,6.46,0,0,0,1.72-4.62c0-41.83-.62-83.67.11-125.51,1-55.48,26.19-97.24,73.94-125.25,16-9.38,33.52-14.64,52-16.8,1.66-.2,2.15-.82,2.07-2.41a30.56,30.56,0,0,1,.17-5.15,15,15,0,0,1,29.87,1.07,30.28,30.28,0,0,1,0,4.26c-.12,1.56.52,2,2,2.21A130.12,130.12,0,0,1,249.78,44.2c47.58,23.73,75,62,81.73,114.9a140,140,0,0,1,.77,17.25q.11,61.41,0,122.81a6.55,6.55,0,0,0,1.73,4.63q15.76,18.25,31.44,36.63c.53.62,1.09,1.23,1.57,1.9a7.42,7.42,0,0,1,.83,8,7.34,7.34,0,0,1-6.65,4.22H359Zm142.84-22.87c-.63-.95-1.05-1.59-1.53-2.23-6.36-8.54-12.71-17-19.14-25.5a7.62,7.62,0,0,1-1.67-4.9c0-42.21.29-84.46,0-126.62C309.09,101,246.28,45.76,175.26,54.12c-30.41,3.59-55.92,17-76.21,39.86s-30.37,50.12-30.37,80.9V299.25A7.3,7.3,0,0,1,67.1,304c-6.48,8.54-12.86,17.08-19.28,25.67-.46.61-.89,1.28-1.5,2.15Z" transform="translate(-4.67 -6.13)" style="fill:#c24332;stroke:#c24332;stroke-miterlimit:10;stroke-width:10px"/><path d="M113.49,371.83h21.93a67.19,67.19,0,0,0,2.48,7.71c2.26,4.89,6.19,8.39,10.59,11.34a66.61,66.61,0,0,0,28.23,10.24c16.22,2.25,31.95.56,46.81-6.69a52.73,52.73,0,0,0,9.25-5.86c5.36-4.18,9.2-9.4,9.6-16.68h22.55a35.57,35.57,0,0,1-2.63,14.23c-4.49,11.39-12.73,19.39-22.93,25.62-10.83,6.65-22.72,10.28-35.23,11.93-17.08,2.25-33.9.95-50.21-4.88-13-4.64-24.43-11.63-32.66-23.05a40.12,40.12,0,0,1-7.88-22.3C113.37,373,113.44,372.55,113.49,371.83Z" transform="translate(-4.67 -6.13)" style="fill:#62938a;stroke:#62938a;stroke-miterlimit:10;stroke-width:10px"/></svg>