<svg xmlns="http://www.w3.org/2000/svg" viewBox="0 0 443.91 445.07"><g id="Layer_2" data-name="Layer 2"><path d="M471.83,179c0-2.38-.12-4.78-.32-7.15-2-23.44-23.11-42.81-47.07-43.2l-5.25-.08c-6.12-.08-12.24-.12-18.36,0l-1.19,0a9,9,0,0,1-.91,0H102.19c-6.86-.08-13.73-.18-20.6-.06-2.13,0-4.25.09-6.38.19-15.47.65-28,7.19-37.41,19.29-7.39,9.51-9.88,20.45-9.86,32.26q.12,120.33,0,240.64c0,1.91.09,3.82.17,5.73,1.07,25.53,22.43,45.94,48.44,45.95q173.24.07,346.48,0A45.44,45.44,0,0,0,443.85,468c18.78-9.48,28-24.82,28-45.43Q471.89,300.78,471.83,179Zm-25,242.89c0,17.4-9.6,26.88-27.2,26.88H79c-10.48,0-18.84-3.84-23.38-13.41A28.48,28.48,0,0,1,53,423.64q-.21-122.29-.09-244.57c0-15.36,10.24-25.37,25.88-25.38q171.24-.06,342.47,0c15.41,0,25.51,10.12,25.54,25.25s-.08,30.08.08,45.12c0,3.24-.83,4.27-4.24,4.25-24.8-.13-49.6-.1-74.4-.06-17.31,0-33.23,4.6-46.82,15.3-22.49,17.72-32.39,40.9-27.94,68.93,5.74,36,36.24,60.92,73.45,61,25.05.06,50.09,0,75.13,0,4.74,0,4.74,0,4.75,4.71Q446.83,400.07,446.82,421.91Zm0-121.07c0,14.9-.05,29.82.05,44.73,0,2.5-.49,3.65-3.38,3.64-26.61-.16-53.23.46-79.81-.47-20.08-.7-34.65-11.33-42.43-29.49-7.68-17.92-4.72-35,7.89-49.92,9.78-11.61,22.85-17.07,38.14-17.13,25-.1,50.06,0,75.08-.1,3.44,0,4.59.84,4.54,4.36C446.72,271.25,446.83,286,446.83,300.84Z" transform="translate(-27.94 -27.56)" fill="#c24332"/><path d="M368.58,318.37a17.77,17.77,0,1,1,18-17.78A17.91,17.91,0,0,1,368.58,318.37Z" transform="translate(-27.94 -27.56)" fill="#62948b"/><path d="M81.59,128.53v.06h20.6C95.33,128.51,88.46,128.41,81.59,128.53Zm319.24.06h18.36C413.07,128.51,407,128.47,400.83,128.59Z" transform="translate(-27.94 -27.56)" fill="#fff" opacity="0.54"/><path d="M305.65,128.59h93.08c-2.54-.15-4-1.28-5.36-3.61q-26.16-44.48-52.55-88.83c-5.26-8.88-12.73-10.63-21.41-4.85-10,6.64-19.84,13.37-29.76,20.05C278.85,58.63,268,65.9,256.87,73.41c-1.24-1.43-2.2-2.5-3.11-3.6-10.35-12.35-20.65-24.74-31-37-5.53-6.55-12.66-6.92-19-1.17-.72.64-1.39,1.34-2.08,2q-46.38,46.11-92.72,92.25a8.51,8.51,0,0,1-6.54,2.72H305.61a6.76,6.76,0,0,1-5.79-2.77c-8.16-9.92-16.49-19.73-24.76-29.58-.76-.91-1.47-1.86-2.52-3.18L324.4,57.67l42.23,70.57c-1.85.14-3,.29-4.1.29C343.57,128.54,324.61,128.49,305.65,128.59Zm-163.94-.39,71.54-68.49,56.82,68.49Z" transform="translate(-27.94 -27.56)" fill="#62948b"/></g></svg>