<svg id="Layer_1" data-name="Layer 1" xmlns="http://www.w3.org/2000/svg" viewBox="0 0 331.34 414.6"><path d="M40.39,423.72c-6.22,0-14.49-1.23-14.49-11.85q-.31-116.69-.66-233.37-.14-30.19-.24-60.39c0-4.3.92-7.24,2.93-9.26,2.37-2.38,6.23-3.44,12.51-3.44H70.92c.59,0,1.18,0,1.79-.06l.8,0V95.21l.11-23.33.07-.21c.15-.49.29-1,.43-1.42.28-1,.55-1.89.89-2.82,4-11.08,16.42-18.63,30.81-18.77,2.9,0,5.8,0,8.66,0l8.66,0,6.78,0c1.05-1.74,2-3.47,3-5.16,2.34-4.17,4.55-8.11,7.72-11.63,11.82-13.1,27.22-19.75,45.79-19.75a83.39,83.39,0,0,1,11.83.87c22.9,3.28,38.7,14.76,45.68,33.21.71,1.87,1.34,2.45,3.94,2.45h.56c2.5-.06,5.21-.09,8.28-.09s6.19,0,9.28.06l3.48,0c17.43.11,29.66,8,33.55,21.71.08.27.17.53.31.92l.28.82V105.3h.13c.88.06,1.72.11,2.55.11H339.5c5,0,8.71,1.2,11,3.53a10.53,10.53,0,0,1,2.81,7.82V214c0,6.61-4.86,11.11-12.1,11.2H341c-7.16,0-12.16-4.67-12.16-11.36V125.45h-8.06l-5.8,0-5.81,0c-1.95,0-3.89,0-5.84,0h-.13l-.43,0a2.94,2.94,0,0,0-2.65,1.34l0,.07-.05.08c-6.22,9.85-16.36,14.84-30.16,14.84H107.64c-14,0-24.42-5.05-30.93-15a3.61,3.61,0,0,0-1.12-1.12c-5.48-.07-10.78-.08-15.25-.08H50.17V403.66H182.22c7.81.18,13.22,4.34,13.18,10.12s-5.52,9.94-13.3,9.94Zm75-355h-7.59c-8.55,0-9.64,4-9.64,7.42v36.48c0,7,1.53,9,11.57,9H268l1.43,0c.47,0,.93,0,1.39,0,4.83-.21,8.08-2.69,8.08-6.15.11-13.47.11-27.14,0-40.63,0-3.68-3.3-6.1-8.35-6.16-2.53,0-5.08,0-7.62,0l-7.65,0-7.64,0c-.47,0-1,0-1.46.09l0,1.28a44.68,44.68,0,0,1,0,5.17c-.44,5.15-5.71,9.18-12,9.18h-.45c-6.44,0-11.78-4.33-11.87-9.64-.06-1.11,0-2.28,0-3.41s0-2.11,0-3.14c-.1-1.64-.13-3.32-.16-4.94a44.63,44.63,0,0,0-1-10.71c-3-11.68-17-20.48-32.55-20.48-1,0-2.08,0-3.11.12C168,33.4,154.79,44.38,154.26,57.73c-.1,2.73-.07,5.54,0,8.26s0,5.59-.06,8.39c-.19,5.92-5.24,10.06-12.26,10.06s-11.92-4.13-12.14-10c-.06-1.46,0-2.93,0-4.49,0-.39,0-.78,0-1.19Z" transform="translate(-23.5 -10.62)" style="fill:#c24332"/><path d="M186.4,13.62a82.06,82.06,0,0,1,11.61.85c22.91,3.28,37.79,14.55,44.5,32.26,1,2.63,2.34,3.42,5.34,3.42h.61c2.74-.07,5.48-.09,8.22-.09,4.25,0,8.51.06,12.76.09,16.83.11,28.41,7.57,32.12,20.62.12.41.26.81.53,1.58v34.39c1.41,0,2.79.19,4.18.19H339.5c8.25,0,12.38,3.31,12.33,9.84V214c0,5.81-4.25,9.62-10.62,9.7H341c-6.28,0-10.66-4-10.66-9.86V124h-9.56c-3.87,0-7.74,0-11.61,0-1.94,0-3.88,0-5.81,0a5.83,5.83,0,0,0-.59,0,4.41,4.41,0,0,0-4,2.18c-5.91,9.37-15.65,14.15-28.89,14.15H107.64c-13.59,0-23.43-4.78-29.68-14.35-.47-.74-1.49-1.79-2.3-1.79C70.55,124,65.43,124,60.34,124H48.67V405.16H182.22c6.86.16,11.71,3.7,11.68,8.61s-4.87,8.45-11.8,8.45H40.39c-9.1,0-13-3.09-13-10.35q-.31-116.69-.66-233.38-.14-30.19-.24-60.38c0-8.33,3.59-11.2,13.94-11.2H70.92c1.28,0,2.58-.14,4.09-.14V95.21l.11-23.1c.47-1.51.82-2.85,1.3-4.16,3.8-10.43,15.75-17.65,29.41-17.79,2.9,0,5.79,0,8.65,0,5.71,0,11.25,0,16.27,0,3.87-6.21,6.47-12.28,11-17.28,11.42-12.66,26.59-19.26,44.68-19.26M141.89,82.94c-6.1,0-10.45-3.46-10.64-8.61-.09-2.18,0-4.37,0-7.12H107.83c-7.52,0-11.13,3-11.13,8.92v36.48c0,8.29,2.79,10.52,13.07,10.52H266.49l2.9,0c.49,0,1,0,1.45,0,5.57-.25,9.52-3.23,9.52-7.65q.17-20.26,0-40.64c0-4.57-4-7.58-9.83-7.65q-3.81,0-7.64,0c-5.1,0-10.2,0-15.29,0a26.63,26.63,0,0,0-3,.26c0,2.66.21,5.16,0,7.66-.38,4.4-5,7.8-10.51,7.8h-.4c-5.7,0-10.34-3.64-10.42-8.17-.12-2.19.05-4.39-.06-6.6-.32-5.32.15-10.79-1.2-15.95-3.29-12.68-18.05-21.6-34-21.6-1.07,0-2.15,0-3.22.13-17.73,1.25-31.49,12.83-32.05,27-.19,5.55.08,11.11-.11,16.66-.17,5.11-4.66,8.61-10.76,8.61M186.4,10.62v0c-18.74,0-35,7-46.91,20.25-3.28,3.64-5.53,7.65-7.91,11.9-.8,1.44-1.63,2.91-2.51,4.39l-5.93,0-8.66,0c-3.23,0-6.07,0-8.68,0-15,.15-27.94,8.09-32.2,19.76-.35,1-.63,1.9-.92,2.89q-.2.69-.42,1.41l-.14.43v.45L72,95.2v8.68l-1.09,0H40.44c-6.71,0-10.9,1.2-13.58,3.88-2.31,2.32-3.38,5.6-3.36,10.33q.11,30.18.24,60.38c.23,77.43.45,156,.66,233.38,0,13.34,12,13.34,16,13.34H182.1c8.52,0,14.75-4.81,14.8-11.43s-6-11.43-14.61-11.63H51.67V127h8.67c4.34,0,9.47,0,14.75.08a2.41,2.41,0,0,1,.33.4l0,0v0c6.81,10.43,17.64,15.71,32.19,15.71H269.92c14.34,0,24.92-5.23,31.43-15.54l.09-.15.07-.15a1.65,1.65,0,0,1,1.3-.49h.26l.14,0h.14c1.75,0,3.67,0,5.86,0l5.82,0q2.89,0,5.79,0h6.56v86.84c0,7.45,5.74,12.86,13.66,12.86h.21c8-.1,13.58-5.32,13.58-12.7V116.76a12,12,0,0,0-3.24-8.87c-2.6-2.62-6.66-4-12.08-4H306.27l-1.18,0v-32l-.16-.47-.2-.58c-.13-.37-.22-.62-.29-.87-4.08-14.35-16.83-22.67-35-22.78l-3.48,0c-3.05,0-6.2-.06-9.3-.06s-5.79,0-8.3.09h-.53c-2,0-2.06-.23-2.54-1.48-7.19-19-23.4-30.8-46.87-34.17a86.35,86.35,0,0,0-12-.88ZM141.89,85.94c7.75,0,13.54-4.84,13.76-11.51.1-2.83.08-5.69.06-8.45s-.05-5.5,0-8.21c.5-12.57,13.08-22.93,29.26-24.07,1-.08,2-.12,3-.12,14.86,0,28.23,8.32,31.1,19.35a44.51,44.51,0,0,1,1,10.37c0,1.63,0,3.33.15,5,0,1,0,2,0,3s0,2.31,0,3.51c.13,6.2,6,11,13.36,11.06h.45c7.18,0,13-4.54,13.49-10.55a42.69,42.69,0,0,0,.07-5.17l7.57,0,7.64,0c2.85,0,5.34,0,7.61,0,3.3,0,6.84,1.29,6.86,4.66.12,13.52.12,27.17,0,40.6,0,3.24-3.59,4.55-6.66,4.68-.42,0-.86,0-1.31,0l-1.41,0H109.77c-4.54,0-7.25-.47-8.51-1.49-.72-.58-1.56-1.8-1.56-6V76.13c0-2.85.62-5.89,8.14-5.92h20.38c0,1.46,0,2.85,0,4.24.25,6.76,5.86,11.49,13.64,11.49Z" transform="translate(-23.5 -10.62)" style="fill:#c24332"/><path d="M238.7,187.78c-9.26-.08-19.32-.11-31.67-.11l-21.12,0-21.14,0H89.94c-5.93,0-10-3.05-11-8.16a10.08,10.08,0,0,1,7.87-11.86,8.13,8.13,0,0,1,1-.15c.79-.06,1.54-.09,2.28-.09H238.85c7.22,0,11.92,3.88,12,9.88,0,5.21-3.69,10.44-12,10.44Z" transform="translate(-23.5 -10.62)" style="fill:#62938a"/><path d="M90.05,169.45h148.8c6.14,0,9.93,3,10,7.9,0,4-2.66,8.42-10,8.42h-.16q-15.84-.14-31.69-.11c-14.09,0-28.17,0-42.26,0H89.94c-5,0-8.27-2.41-9.06-6.53a8.09,8.09,0,0,1,6.31-9.53q.39-.08.78-.12c.69-.06,1.38-.08,2.08-.08m0-4c-.8,0-1.61,0-2.4.09h-.09a11.82,11.82,0,0,0-1.17.18A12.08,12.08,0,0,0,77,180c1.16,6,6.13,9.76,13,9.76h74.83l21.14,0,21.12,0c12.34,0,22.4,0,31.66.11h.19c9.64,0,14-6.24,14-12.42-.07-7.13-5.69-11.9-14-11.9H90.05Z" transform="translate(-23.5 -10.62)" style="fill:#62938a"/><path d="M207.78,226.47H186l-32.07,0H89.63a11,11,0,0,1-9.69-5.14,9.72,9.72,0,0,1,0-9.82,9.55,9.55,0,0,1,8.18-5.19c.41,0,.89,0,1.36,0l1.34,0,1.25,0H217.83c5.68,0,9.68,2.62,11,7.19a10.07,10.07,0,0,1-1.54,8.87,10.66,10.66,0,0,1-8.61,4.12C215,226.47,211.4,226.47,207.78,226.47Z" transform="translate(-23.5 -10.62)" style="fill:#62938a"/><path d="M89.49,208.23c.87,0,1.73,0,2.59,0H217.83c4.84,0,8,2,9.06,5.73,1.54,5.46-2.3,10.41-8.25,10.45q-5.43,0-10.86,0l-21.75,0-32.06,0H89.63c-7,0-11.08-6.26-7.93-12a7.59,7.59,0,0,1,6.5-4.16c.43,0,.86,0,1.29,0m0-4c-.55,0-1,0-1.5,0a11.59,11.59,0,0,0-9.82,6.29,11.78,11.78,0,0,0,0,11.73,13,13,0,0,0,11.41,6.13H154l32.05,0H196.9l10.88,0q5.44,0,10.88,0a12.69,12.69,0,0,0,10.21-4.92,12,12,0,0,0,1.87-10.61c-1.57-5.5-6.27-8.65-12.91-8.65H92.08l-1.2,0-1.39,0Z" transform="translate(-23.5 -10.62)" style="fill:#62938a"/><path d="M90.78,265.15a26,26,0,0,1-3.94-.31,10.05,10.05,0,0,1-1.46-19.33l.1,0a15.48,15.48,0,0,1,4.48-.66h.24q20.31,0,40.67,0t40.7,0c4.25,0,7.86,1.59,9.92,4.37a9.61,9.61,0,0,1,1.3,8.73c-1.33,4.39-5.09,7.07-10.06,7.16-1.67,0-3.34.05-5,.05l-5,0c-1.66,0-3.31,0-5,0l-26.61.06H90.78Z" transform="translate(-23.5 -10.62)" style="fill:#62938a"/><path d="M130.87,246.79q20.35,0,40.7,0c7,0,11.07,4.71,9.3,10.52-1.06,3.51-4,5.67-8.18,5.74-1.66,0-3.32.05-5,.05-3.32,0-6.65-.05-10-.05l-26.61.06H90.77a23.15,23.15,0,0,1-3.62-.29,8,8,0,0,1-1.09-15.46,13.21,13.21,0,0,1,3.9-.58h.21l40.7,0m0-4-40.7,0H90a17.37,17.37,0,0,0-5.06.75l-.1,0-.1,0a12.05,12.05,0,0,0,1.64,23.15l.09,0h.09a27.47,27.47,0,0,0,4.25.34h40.35l26.62-.06,5,0,5,0c1.89,0,3.56,0,5.08-.05,5.86-.11,10.32-3.31,11.91-8.58a11.57,11.57,0,0,0-1.6-10.5c-2.44-3.29-6.64-5.18-11.53-5.18q-20.34,0-40.7,0Z" transform="translate(-23.5 -10.62)" style="fill:#62938a"/><path d="M246.5,279.84v-.12h.82C247.07,280,246.77,279.84,246.5,279.84Z" transform="translate(-23.5 -10.62)" style="fill:#7c7c7c"/><path d="M208.79,334.86c-2.09,0-4.19.11-6.27,0a7.6,7.6,0,0,1-7.14-7.22c-.23-4,2.56-7.71,6.57-8a98.41,98.41,0,0,1,14,0c3.88.27,6.72,3.95,6.6,7.72a7.6,7.6,0,0,1-7.15,7.52c-2.18.16-4.37,0-6.56,0Z" transform="translate(-23.5 -10.62)" style="fill:#62938a"/><path d="M313.94,334.89c-2.09,0-4.19.11-6.27,0a7.69,7.69,0,0,1-.21-15.34,119.45,119.45,0,0,1,13.11,0,7.69,7.69,0,0,1-.36,15.33C318.13,335,316,334.89,313.94,334.89Z" transform="translate(-23.5 -10.62)" style="fill:#62938a"/><path d="M269.68,380.35c0,1.9.06,3.81,0,5.71a7.63,7.63,0,0,1-7.61,7.64h0a7.45,7.45,0,0,1-7.79-7.08v0a109.83,109.83,0,0,1,0-12.83,7.69,7.69,0,0,1,15.36.33c.11,2.08,0,4.18,0,6.27Z" transform="translate(-23.5 -10.62)" style="fill:#62938a"/><path d="M268.67,275.18c0,2.09.12,4.19,0,6.27a7.69,7.69,0,0,1-15.33.21,106,106,0,0,1,0-13.1,7.67,7.67,0,0,1,15.3.35c.14,2.08,0,4.18,0,6.27Z" transform="translate(-23.5 -10.62)" style="fill:#62938a"/><circle cx="237.43" cy="316.52" r="82.64" style="fill:none;stroke:#c24332;stroke-miterlimit:10;stroke-width:21px"/></svg>