<svg xmlns="http://www.w3.org/2000/svg" viewBox="0 0 428.42 462.05"><g id="Layer_2" data-name="Layer 2"><path d="M-.81,484.13c-.45-1.51-.17-3.05-.22-4.57a.54.54,0,0,0,.22,0Z" transform="translate(1.07 -27.38)" fill="#f79fa2"/><path d="M-.81,489.41H-1c.06-1.52-.24-3.06.22-4.57Z" transform="translate(1.07 -27.38)" fill="#f69ea1"/><path d="M63.17,246V44.29a38,38,0,0,1,.35-6.3c1-6.21,5.36-10.15,11.63-10.56.67-.05,1.35-.05,2-.05H355q27.18,0,54.37,0a24.66,24.66,0,0,1,7.1.95c5.18,1.56,8.11,5.55,8.51,11.54.05.76.06,1.53.06,2.3q0,98.25,0,196.51c0,3.33.54,3-3.1,3.05-8.3,0-16.59,0-24.89,0-1.1,0-1.58-.26-1.46-1.43.08-.8,0-1.63,0-2.44q0-89.49,0-179c0-2.21.22-1.92-1.91-1.92Q244.25,57,94.94,57C92.81,57,93,56.73,93,58.94V433.27c0,2.2-.24,1.87,1.94,1.87q60,0,120,0c4.11,0,3.92-.61,3.94,4,0,7.81,0,15.63,0,23.45,0,2.05-.1,2.16-2.2,2.16q-66.46,0-132.93-.05c-3.53,0-7.11.3-10.61-.39-5.39-1.07-8.56-4.37-9.59-9.75a26.16,26.16,0,0,1-.4-5Z" transform="translate(1.07 -27.38)" fill="#c24332"/><path d="M243.94,147.36H145.71c-2.55,0-2.49,0-2.56-2.47-.21-7-.11-14.09,0-21.13,0-1.35.39-1.94,1.73-1.88.53,0,1.06,0,1.58,0q97.38,0,194.74,0c4.48,0,3.74-.32,3.78,3.78.07,6.47,0,12.95,0,19.42,0,2.27,0,2.29-2.36,2.29Z" transform="translate(1.07 -27.38)" fill="#62948b"/><path d="M191.36,222.91H145.78c-.48,0-1,0-1.44,0-.8,0-1.18-.26-1.2-1.16-.19-7.61-.15-15.23,0-22.85,0-.81.23-1.27,1.14-1.2.53,0,1.05,0,1.58,0h90.88c2.85,0,3,0,3,2.84.05,7.09,0,14.18,0,21.28,0,.78-.23,1.16-1,1.13-.48,0-1,0-1.44,0Z" transform="translate(1.07 -27.38)" fill="#62948b"/><path d="M289.53,362.12c2.4-.61,4.85-.39,7.26-.43,4-.06,8,.07,12.07.12a6,6,0,0,1,4.73,2.32c4.65,5.68,8.6,11.87,12.93,17.78.77,1,1.06,1.18,1.89,0,11.11-15.55,22.32-31,33.41-46.6,1.73-2.42,3.79-3.5,6.7-3.1a17.62,17.62,0,0,0,2.3.09c4.74,0,9.49,0,14.23.09.55,0,1.29-.16,1.56.44s-.3,1-.6,1.39q-4.75,6.66-9.53,13.32L329,413.39c-1.52,2.11-1.55,2.11-3.09,0q-17.76-24.75-35.5-49.51A3.27,3.27,0,0,1,289.53,362.12Z" transform="translate(1.07 -27.38)" fill="#c24332"/><circle cx="339.17" cy="346.51" r="80.75" fill="none" stroke="#62948b" stroke-miterlimit="10" stroke-width="17"/></g></svg>