<svg xmlns="http://www.w3.org/2000/svg" viewBox="0 0 442.93 442.94"><g id="Layer_2" data-name="Layer 2"><path d="M240.21,170.56q0,27.48,0,54.95c0,10.65-5,15.62-15.79,15.62H116.11c-10.72,0-15.63-4.94-15.63-15.72q0-55.15,0-110.3c0-10.73,4.94-15.63,15.73-15.63q54.15,0,108.3,0c10.69,0,15.68,5,15.69,15.73Q240.23,142.89,240.21,170.56Zm-26.51-.23c0-13.5-.08-27,.06-40.5,0-3-.9-3.93-3.88-3.92q-39.51.14-79,0c-2.94,0-4,.89-4,3.88q.12,40.51,0,81c0,3,1,3.88,3.94,3.87q39.5-.15,79,0c2.94,0,3.94-.81,3.9-3.85C213.62,197.34,213.7,183.83,213.7,170.33Z" transform="translate(-28.54 -28.53)" fill="#62948b"/><path d="M399.55,170.14q0,27.88,0,55.76c0,10.18-5.09,15.22-15.32,15.23H275.13c-10.15,0-15.29-5.14-15.3-15.3q0-55.54,0-111.1c0-10.15,5.16-15.24,15.36-15.25q54.56,0,109.1,0c10.21,0,15.24,5.06,15.26,15.31Q399.58,142.47,399.55,170.14Zm-113.23-.07c0,13.51.1,27-.06,40.51,0,3.16.87,4.13,4.05,4.12q39.3-.16,78.61,0c3.08,0,4.22-.76,4.2-4q-.17-40.3,0-80.61c0-3.1-.9-4.17-4.1-4.16q-39.3.16-78.61,0c-3.07,0-4.19.8-4.15,4.06C286.43,143.34,286.33,156.71,286.32,170.07Z" transform="translate(-28.54 -28.53)" fill="#62948b"/><path d="M100.47,329.66q0-27.87,0-55.75c0-9.91,5.16-15,15.12-15q54.75,0,109.5,0c9.87,0,15.08,5.2,15.09,15.1q0,55.76,0,111.51c0,9.86-5.24,15-15.16,15q-54.75,0-109.51,0c-9.91,0-15-5.16-15-15.12Q100.44,357.54,100.47,329.66Zm26.49,0c0,13.37.09,26.74-.06,40.11,0,3.32,1,4.34,4.35,4.32q39.1-.18,78.21,0c3.31,0,4.32-.95,4.31-4.31q-.2-40.1,0-80.21c0-3.35-1-4.3-4.3-4.28q-39.09.18-78.2,0c-3.27,0-4.42.88-4.37,4.27C127.06,303,127,316.32,127,329.69Z" transform="translate(-28.54 -28.53)" fill="#62948b"/><path d="M366.5,28.61c17.38,0,34.77-.2,52.15,0a52.84,52.84,0,0,1,51.49,41.94,51,51,0,0,1,1.22,10.73q.13,53,0,105.9c0,12.89-11.36,21.37-23.1,17.64-7.57-2.4-12.25-9-12.29-17.83-.07-17.78,0-35.57,0-53.35,0-16.58,0-33.16,0-49.74,0-13-6.91-19.84-19.83-19.86q-51.14,0-102.28,0c-9.46,0-16.23-4.53-18.68-12.27-3.72-11.77,4.71-23,17.59-23.16,17.92-.15,35.84,0,53.75,0Z" transform="translate(-28.54 -28.53)" fill="#c24332"/><path d="M471.42,366.38c0,16.71.05,33.42,0,50.14-.09,31.68-23,54.8-54.61,54.89-34.36.1-68.73,0-103.09,0-9,0-15.63-4.26-18.34-11.62a17.63,17.63,0,0,1,13.51-23.47,40.4,40.4,0,0,1,6.79-.37q49.74,0,99.48,0c14.24,0,20.79-6.59,20.8-20.9q0-50.75,0-101.49c0-9.16,4.52-15.87,12.13-18.35,11.73-3.83,23.15,4.59,23.27,17.43C471.54,330.54,471.42,348.46,471.42,366.38Z" transform="translate(-28.54 -28.53)" fill="#c24332"/><path d="M133.93,28.59c17.79,0,35.57-.12,53.35,0,12.78.11,21.11,11,17.67,22.79-2.15,7.35-8.61,12.31-16.78,12.59-5.47.19-11,.06-16.44.06h-87c-14,0-20.62,6.64-20.62,20.68q0,50.74,0,101.48c0,9.28-4.39,16-11.92,18.52C40.59,208.66,29,200.49,28.65,188c-.22-8,0-16,0-24.07,0-27.28-.11-54.55,0-81.83.14-25.68,17.14-46.78,42-52.22a64.15,64.15,0,0,1,13.13-1.25C100.51,28.5,117.22,28.58,133.93,28.59Z" transform="translate(-28.54 -28.53)" fill="#c24332"/><path d="M133.5,471.43c-16.58,0-33.16.05-49.74,0-32.14-.1-55.11-23.05-55.15-55.16q-.08-51.56,0-103.09c0-13.05,10.87-21.57,22.77-18.13A17.54,17.54,0,0,1,64,311.81c.19,6.41.06,12.83.06,19.25q0,42.12,0,84.23c0,14,6.65,20.65,20.65,20.65q50.75,0,101.49,0c9.63,0,16.43,4.68,18.75,12.67,3.42,11.75-4.93,22.65-17.71,22.76C169.33,471.54,151.42,471.43,133.5,471.43Z" transform="translate(-28.54 -28.53)" fill="#c24332"/><path d="M303.1,302.87H267.73v-6.4c0-8.29.09-16.58-.05-24.86,0-2.85.69-4.08,3.8-4,9.35.17,18.71,0,28.07.16,1.19,0,3.38,1.24,3.4,1.93C303.17,280.6,303.1,291.53,303.1,302.87Z" transform="translate(-28.54 -28.53)" fill="#62948b"/><path d="M347.14,312.59v34.53H312V334.7c0-6.41,0-12.83,0-19.25,0-1.84,0-3.48,2.6-3.46,10.43.09,20.86.07,31.28.12A4.66,4.66,0,0,1,347.14,312.59Z" transform="translate(-28.54 -28.53)" fill="#62948b"/><path d="M302.88,391.63H282.72c-4,0-8,.14-12-.11-1-.07-2.8-1.4-2.81-2.18-.19-10.8-.13-21.61-.13-32.73h35.12Z" transform="translate(-28.54 -28.53)" fill="#62948b"/><path d="M391.38,356.66v34.67H356.63V356.66Z" transform="translate(-28.54 -28.53)" fill="#62948b"/><path d="M356.57,267.67c11.13,0,21.93,0,32.72.09.78,0,2.21,1.29,2.22,2,.14,10.92.1,21.84.1,33h-35Z" transform="translate(-28.54 -28.53)" fill="#62948b"/><path d="M152.88,187.45V152.92H188v10q0,10.83,0,21.66c0,1.81.1,3.52-2.56,3.5-10.42-.08-20.85-.07-31.28-.11A5.56,5.56,0,0,1,152.88,187.45Z" transform="translate(-28.54 -28.53)" fill="#749990"/><path d="M347.1,188c-11.19,0-22,0-32.8-.09a3.06,3.06,0,0,1-2.18-2C312,175,312,164,312,152.88H347.1Z" transform="translate(-28.54 -28.53)" fill="#749990"/><path d="M188,347.18H153V312h13.14c6.15,0,12.31-.11,18.45.1,1.15,0,3.22,1.38,3.24,2.15C188.07,325.05,188,335.86,188,347.18Z" transform="translate(-28.54 -28.53)" fill="#749990"/></g></svg>