<svg id="Layer_1" data-name="Layer 1" xmlns="http://www.w3.org/2000/svg" viewBox="0 0 426.88 426.65"><path d="M213.54,4.68q68.68,0,137.36,0c45.85,0,75.85,29.74,75.91,75.43q.13,103,0,206c-.06,43.62-30.71,74-74.36,74.06-17.41,0-34.84-.41-52.22.27a23.39,23.39,0,0,0-14.11,5.78c-19.3,18.53-38,37.7-57,56.58-11.3,11.25-20,11.2-31.32-.12-18.27-18.22-36.76-36.22-54.56-54.87-5.69-6-11.51-7.85-19.45-7.81-21.56.09-43.44,1.47-64.62-1.58-35-5-58.49-33.25-58.75-68.54C-.09,217.7-.22,145.46.47,73.24.84,34.23,32.6,5,73.28,4.75,120,4.45,166.79,4.68,213.54,4.68Zm0,384.83c19.66-19.91,37.68-38.81,56.57-56.8a29.41,29.41,0,0,1,17.67-7.3c21.9-.86,43.85-.16,65.78-.39,22.74-.25,37.78-14.73,37.87-37.5q.44-105,0-209.94C391.25,54.43,376.81,40,353.72,40q-140.28-.37-280.57,0C50.18,40,35.69,54.62,35.6,77.67q-.41,104.47,0,209c.1,24,15,38.24,39,38.4,21.28.14,42.57.29,63.85-.1,8.06-.15,14.08,2.42,19.63,8.18C175.93,351.67,194.16,369.9,213.49,389.51Z" transform="translate(0 -4.6)" style="fill:#c24332"/><path d="M213.65,128.79c-35.12,0-70.23.15-105.34-.08-11.43-.08-19.14-7.57-19.22-17.45s7.74-17.13,19-17.87c2.57-.17,5.15,0,7.73,0h144c19.65,0,39.31-.24,58.95.12,11.33.2,19.1,7.82,19.19,17.61s-7.6,17.09-19,17.7c-2.57.14-5.16,0-7.73,0H213.65Z" transform="translate(0 -4.6)" style="fill:#62938a"/><path d="M196,236.11c28.68,0,57.36-.06,86,0,12.74,0,19.81,6.27,19.93,17.19.12,10.65-7.46,17.8-19.51,17.82q-86.52.11-173,0c-15.61,0-24.75-13.19-18.11-25.76,3.72-7,10-9.37,17.69-9.33C138,236.2,167,236.11,196,236.11Z" transform="translate(0 -4.6)" style="fill:#62938a"/><path d="M169.06,199.8c-20,0-40,.06-59.94,0-12.15-.05-20.05-7-20-17.41s8.08-17.57,20.08-17.6q59.92-.15,119.87,0c12.16,0,19.95,7.14,19.95,17.64s-7.9,17.33-20,17.37C209,199.86,189,199.8,169.06,199.8Z" transform="translate(0 -4.6)" style="fill:#62938a"/></svg>