<svg xmlns="http://www.w3.org/2000/svg" viewBox="0 0 444.04 277.44"><g id="Layer_2" data-name="Layer 2"><path d="M250,111.43c51.73,0,103.47-.44,155.19.18,26.93.33,46.43,14.17,59.18,37.64,5.48,10.1,7.61,21.06,7.61,32.49,0,45.49.09,91,0,136.45-.09,36.4-25.27,65-61.35,69.92a80.06,80.06,0,0,1-10.85.53c-28.49,0-57,0-85.46,0-11.54,0-22.31-2.45-31.7-9.51a47.45,47.45,0,0,1-13.79-16.07c-2.9-5.53-7-9.73-13.13-11.5A20,20,0,0,0,233.1,360c-1.94,2.91-3.64,6-5.67,8.82-9.7,13.56-23.33,19.7-39.61,19.77-31.86.13-63.73.35-95.58-.4C61,387.46,32.16,360,28.79,329A130.21,130.21,0,0,1,28,315.13Q28,248.6,28,182.06c0-23.94,9.5-43.43,28.79-57.7,11.07-8.19,23.61-12.92,37.63-12.92Zm-.14,27.51H102.16c-2.5,0-5,0-7.49.18C73.62,140.33,56,158,55.9,179q-.39,70.85,0,141.71c.12,21.07,17.65,39.09,38.74,39.81,18.48.62,37,.25,55.48.29,12.37,0,24.74-.12,37.11,0,9,.11,15.57-3.71,19.94-11.5.8-1.42,1.55-2.86,2.46-4.2,10.54-15.59,25.27-23.17,44-21.84,17.22,1.22,30.16,9.84,38.48,25,4.84,8.82,11.94,12.93,22,12.6,8.49-.29,17-.05,25.49-.06,21.75,0,43.5.39,65.23-.28,22-.68,39.22-18.86,39.3-40.85q.27-69.92-.12-139.84A41.14,41.14,0,0,0,440,163c-7.82-16.34-21.38-24-39.46-24Q325.22,139,249.87,138.94Z" transform="translate(-27.98 -111.28)" fill="#c24332"/><path d="M222.26,249.81c.07,38.1-31.23,69.45-69.36,69.46S83.43,287.9,83.51,249.8a69.7,69.7,0,0,1,69.2-69.28C190.78,180.38,222.19,211.67,222.26,249.81Zm-27.78.16a41.6,41.6,0,1,0-41.83,41.52A41.79,41.79,0,0,0,194.48,250Z" transform="translate(-27.98 -111.28)" fill="#62948b"/><path d="M347.08,180.52c38.07,0,69.46,31.38,69.41,69.44S385,319.39,347,319.27A69.68,69.68,0,0,1,277.74,250C277.63,212,309,180.54,347.08,180.52Zm-.06,111a41.6,41.6,0,1,0-41.5-41.86A41.78,41.78,0,0,0,347,291.49Z" transform="translate(-27.98 -111.28)" fill="#62948b"/></g></svg>