<svg xmlns="http://www.w3.org/2000/svg" viewBox="0 0 443.91 360.4"><g id="Layer_2" data-name="Layer 2"><path d="M249.9,430.19q-82.29,0-164.58,0a57.31,57.31,0,0,1-16.1-2,54.23,54.23,0,0,1-20.83-11.36,58.07,58.07,0,0,1-16-22.73,55.63,55.63,0,0,1-3.9-15.89c-.26-3.11-.42-6.24-.42-9.37Q28,249,28,129.23a60.84,60.84,0,0,1,9.47-33.35,55.32,55.32,0,0,1,27.7-22.75A54.74,54.74,0,0,1,84.74,69.8q97.53,0,195.08,0,67.73,0,135.44,0a55.27,55.27,0,0,1,17.27,2.51,54.7,54.7,0,0,1,25.32,17.17,58.62,58.62,0,0,1,10.73,19,53.11,53.11,0,0,1,2.92,13.2c.26,3.44.43,6.89.43,10.33q0,119.39,0,238.75a60.88,60.88,0,0,1-9.27,33.06,55.35,55.35,0,0,1-29.07,23.49,56.18,56.18,0,0,1-18.92,2.92Q332.3,430.17,249.9,430.19Zm0-29.43q83.21,0,166.4,0a26.29,26.29,0,0,0,20.42-9.48c5.21-5.92,7.47-13,7.47-21.09q0-120.17,0-240.32c0-.6,0-1.2,0-1.81a30,30,0,0,0-7.22-19.13,27,27,0,0,0-21.36-9.72q-165.66,0-331.32,0a31,31,0,0,0-7,.83,26.34,26.34,0,0,0-15.35,10.26,31.16,31.16,0,0,0-6.13,19.34q0,120.35,0,240.68c0,.64,0,1.29,0,1.93a29.73,29.73,0,0,0,3.7,13.62c5.61,9.84,13.92,14.84,24.77,14.85Q167.08,400.79,249.88,400.76Z" transform="translate(-28.04 -69.8)" fill="#c24332"/><path d="M179.84,244.23c0-13.66-.21-27.32.06-41,.23-11.07,3.45-21.21,10.26-29.83a37.46,37.46,0,0,1,19.9-13.38c12-3.28,23.3-.9,33.82,5.51,10.2,6.22,20.15,12.89,30.2,19.39,10.34,6.68,20.73,13.27,31,20.15a47.64,47.64,0,0,1,19.09,25.11,43.81,43.81,0,0,1,1.63,21.36,45.91,45.91,0,0,1-17.93,29.75c-6.56,5-13.62,9.28-20.52,13.77Q266.67,308.56,246,321.91a49.47,49.47,0,0,1-17.53,7.33c-17.1,3.31-33.22-3.79-42.21-19.85a45.34,45.34,0,0,1-5.54-16.54,108.75,108.75,0,0,1-.84-12.23c-.11-12.13,0-24.26,0-36.39Zm27.68.17c0,12.41,0,24.83,0,37.24a30.52,30.52,0,0,0,1.27,9.74c1.46,4.41,4,7.71,8.49,8.89a13.38,13.38,0,0,0,9.33-1,75.44,75.44,0,0,0,8.3-4.69q25.43-16.38,50.78-32.87c3.4-2.2,6.8-4.37,9.39-7.69a15.2,15.2,0,0,0,1-17.95,24.31,24.31,0,0,0-7.69-7.39l-54.75-35.45c-3.46-2.24-6.94-4.39-11.07-5.05-5.65-.92-10.4,1.6-13,7a26.56,26.56,0,0,0-2.09,11.48C207.49,219.25,207.52,231.83,207.52,244.4Z" transform="translate(-28.04 -69.8)" fill="#62948b"/></g></svg>